<svg id="Capa_1" enable-background="new 0 0 511.996 511.996" height="512" viewBox="0 0 511.996 511.996" width="512" xmlns="http://www.w3.org/2000/svg"><g><path d="m302.793 38.562h-31.063v-31.062h16.062c8.284 0 15 6.716 15 15v16.062z" fill="#dcdbdd"/><path d="m54.295 131.748h264.041v372.748h-264.041z" fill="#857e87"/><path d="m54.294 131.748h51.062v372.748h-51.062z" fill="#6f6571"/><path d="m268.086 287.061h-163.554c-10.59 0-19.175-8.585-19.175-19.175v-11.908h201.905v11.908c-.001 10.59-8.586 19.175-19.176 19.175z" fill="#ffa95f"/><path d="m105.357 267.886v-11.908h-20v11.908c0 10.59 8.585 19.175 19.175 19.175h20c-10.59 0-19.175-8.585-19.175-19.175z" fill="#ff9161"/><path d="m100.888 69.625h-46.795v62.123h264.243v-62.123h-46.602z" fill="#857e87"/><path d="m100.888 90.748v-21.123h-46.795v62.124h264.242v-20h-196.447c-11.598-.001-21-9.403-21-21.001z" fill="#6f6571"/><path d="m100.888 24.169v76.517h170.842v-77.655h.001c0-8.577 6.953-15.53 15.53-15.53l-169.704-.001c-9.206 0-16.669 7.463-16.669 16.669z" fill="#f9f8f9"/><path d="m137.537 7.5h-19.98c-9.206 0-16.669 7.463-16.669 16.669v76.517h20v-76.517c0-9.2 7.452-16.658 16.649-16.669z" fill="#e8e8e8"/><g><path d="m450.903 473.434h-132.579v-310.623h132.579c3.866 0 7 3.134 7 7v296.624c0 3.865-3.134 6.999-7 6.999z" fill="#ffa95f"/></g><path d="m318.324 162.811h20v310.624h-20z" fill="#ff9161"/><path d="m85.156 318.122h202.106v186.374h-202.106z" fill="#e8e8e8"/><path d="m85.156 318.122h20.2v186.374h-20.2z" fill="#dcdbdd"/><path d="m116.318 349.185h141.62v124.249h-141.62z" fill="#857e87"/><path d="m136.318 432.434v-83.249h-20v124.249h141.62v-20h-100.62c-11.597 0-21-9.402-21-21z" fill="#6f6571"/><path d="m426.84 422.982c0-6.735-3.439-12.667-8.657-16.136 5.218-3.469 8.657-9.401 8.657-16.136s-3.439-12.667-8.657-16.136c5.218-3.469 8.657-9.401 8.657-16.136 0-10.694-8.669-19.364-19.364-19.364-10.694 0-19.364 8.669-19.364 19.364 0 6.735 3.439 12.667 8.657 16.136-5.218 3.469-8.657 9.401-8.657 16.136s3.439 12.667 8.657 16.136c-5.218 3.469-8.657 9.401-8.657 16.136 0 10.694 8.669 19.364 19.364 19.364s19.364-8.67 19.364-19.364z" fill="#b0efa5"/><path d="m152.668 287.061h67.282s.001-.001.001-.001v-31.082s-.001 0-.003 0h-67.294v31.082s.005 0 .014.001z" fill="#b0efa5"/><path d="m172.654 255.978h-20v31.082s.005 0 .014.001h20c-.009-.001-.014-.001-.014-.001z" fill="#8be1a4"/><g><path d="m219.952 255.978v31.082s-.001.001-.001.001h48.136c10.59 0 19.175-8.585 19.175-19.175v-11.908z" fill="#fee07d"/></g><path d="m239.952 255.978h-20v31.082l-.001.001h20l.001-.001z" fill="#ffcf64"/><path d="m85.357 162.812h201.893v93.166h-201.893z" fill="#d3effd"/><path d="m85.357 162.812h20v93.166h-20z" fill="#a0dbf2"/></g><g><path d="m287.249 155.312h-201.893c-4.143 0-7.5 3.357-7.5 7.5v105.074c0 14.709 11.967 26.675 26.676 26.675h163.554c14.709 0 26.676-11.966 26.676-26.675-.001-4.955-.012-99.708-.013-105.074 0-4.143-3.357-7.5-7.5-7.5zm-194.393 15h186.893v78.166h-186.893zm119.596 93.166v16.083h-52.298v-16.083zm-119.596 4.408v-4.408h52.298v16.083h-40.622c-6.438 0-11.676-5.238-11.676-11.675zm186.906 0c0 6.438-5.237 11.675-11.676 11.675h-40.634v-16.083h52.31z"/><path d="m457.902 231.352c4.143 0 7.5-3.357 7.5-7.5v-54.041c0-7.995-6.505-14.5-14.5-14.5h-125.066v-85.686c0-4.143-3.357-7.5-7.5-7.5h-39.105v-16.063h23.562c4.143 0 7.5-3.357 7.5-7.5v-16.062c0-12.406-10.094-22.5-22.5-22.5h-16.063c-.023 0-.047.001-.07.001l-154.103-.001c-13.327 0-24.169 10.842-24.169 24.169v37.956h-39.294c-4.143 0-7.5 3.357-7.5 7.5.411 372.716.105 125.936.201 304.741 0 4.143 3.357 7.5 7.5 7.5s7.5-3.357 7.5-7.5v-235.118h154.949c4.143 0 7.5-3.357 7.5-7.5s-3.357-7.5-7.5-7.5h-155.15v-47.123h31.794v16.062h-8.031c-4.143 0-7.5 3.357-7.5 7.5s3.357 7.5 7.5 7.5h201.68c4.143 0 7.5-3.357 7.5-7.5s-3.357-7.5-7.5-7.5h-7.806v-16.062h31.605v47.123h-62.217c-4.143 0-7.5 3.357-7.5 7.5s3.357 7.5 7.5 7.5h62.217c-.016 427.646 0 320.072 0 357.748h-16.074v-178.874c0-4.143-3.357-7.5-7.5-7.5h-202.107c-4.143 0-7.5 3.357-7.5 7.5v178.874h-15.86v-89.944c0-4.143-3.357-7.5-7.5-7.5s-7.5 3.357-7.5 7.5v97.444c0 4.143 3.357 7.5 7.5 7.5h264.041c4.143 0 7.5-3.357 7.5-7.5v-23.562h125.066c7.995 0 14.5-6.505 14.5-14.5v-210.456c0-4.143-3.357-7.5-7.5-7.5s-7.5 3.357-7.5 7.5v209.957h-124.566v-295.624h124.566v53.541c0 4.142 3.358 7.5 7.5 7.5zm-162.609-200.289h-16.062v-8.031c0-4.428 3.603-8.03 8.03-8.03.026 0 .052-.001.077-.001h.454c4.136 0 7.5 3.364 7.5 7.5v8.562zm-186.905-6.894c0-5.056 4.113-9.169 9.169-9.169l146.674.001v78.185h-155.843zm-15.733 301.453h187.106v171.374h-187.106z"/><path d="m257.938 341.685h-141.62c-4.143 0-7.5 3.357-7.5 7.5v124.249c0 4.143 3.357 7.5 7.5 7.5h141.62c4.143 0 7.5-3.357 7.5-7.5v-124.249c0-4.143-3.357-7.5-7.5-7.5zm-86.913 82.887v-26.363h32.207v26.363zm32.207 15v26.361h-32.207v-26.361zm-79.414-41.363h32.207v26.363h-32.207zm47.207-15v-26.524h32.207v26.524zm47.207 15h32.206v26.363h-32.206zm32.206-15h-32.206v-26.524h32.206zm-94.413-26.524v26.524h-32.207v-26.524zm-32.207 82.887h32.207v26.361h-32.207zm94.414 26.362v-26.361h32.206v26.361z"/><path d="m407.477 331.573c-14.813 0-26.863 12.051-26.863 26.863 0 5.914 1.931 11.549 5.38 16.137-3.449 4.587-5.38 10.222-5.38 16.136 0 5.915 1.931 11.549 5.38 16.137-3.449 4.588-5.38 10.222-5.38 16.137 0 14.813 12.051 26.863 26.863 26.863 14.813 0 26.864-12.051 26.864-26.863 0-5.915-1.931-11.549-5.38-16.137 3.449-4.588 5.38-10.222 5.38-16.137 0-5.914-1.931-11.549-5.38-16.136 3.449-4.588 5.38-10.223 5.38-16.137 0-14.812-12.051-26.863-26.864-26.863zm6.554 49.246c3.325 2.21 5.31 5.907 5.31 9.89s-1.984 7.681-5.31 9.891c-4.446 2.957-4.474 9.516 0 12.492 3.325 2.21 5.31 5.907 5.31 9.891 0 6.541-5.322 11.863-11.864 11.863-6.541 0-11.863-5.322-11.863-11.863 0-3.983 1.984-7.681 5.31-9.891 4.446-2.957 4.474-9.516 0-12.492-3.325-2.21-5.31-5.907-5.31-9.891 0-3.982 1.984-7.68 5.31-9.89 4.446-2.957 4.475-9.515.001-12.491-3.325-2.211-5.311-5.909-5.311-9.892 0-6.541 5.322-11.863 11.863-11.863 6.542 0 11.864 5.322 11.864 11.863 0 3.982-1.985 7.681-5.311 9.892-4.448 2.958-4.469 9.518.001 12.491z"/><path d="m341.685 193.874v248.497c0 4.143 3.357 7.5 7.5 7.5s7.5-3.357 7.5-7.5v-248.497c0-4.143-3.357-7.5-7.5-7.5s-7.5 3.357-7.5 7.5z"/></g></svg>